<svg width="19" height="19" viewBox="0 0 19 19" fill="none" xmlns="http://www.w3.org/2000/svg">
<path d="M15.8987 2.39098V1.21873C15.8987 0.999726 15.9689 0.819976 16.1094 0.679476C16.2499 0.538976 16.4257 0.468726 16.6367 0.468726C16.8477 0.468726 17.0234 0.538976 17.1639 0.679476C17.3044 0.819976 17.3827 0.999726 17.3987 1.21873V4.71073C17.3832 4.91373 17.3049 5.08573 17.1639 5.22673C17.0229 5.36773 16.8509 5.44598 16.6479 5.46148H13.1559C12.9369 5.44598 12.7572 5.36773 12.6167 5.22673C12.4762 5.08573 12.4059 4.90998 12.4059 4.69948C12.4059 4.48898 12.4762 4.31323 12.6167 4.17223C12.7572 4.03123 12.9369 3.96098 13.1559 3.96148H15.3354C14.1164 2.67998 12.6829 1.90273 11.0349 1.62973C9.38691 1.35673 7.78916 1.62623 6.24166 2.43823C4.71016 3.28223 3.60866 4.46973 2.93716 6.00073C2.26566 7.53173 2.13291 9.15673 2.53891 10.8757C2.99191 12.5632 3.87866 13.9187 5.19916 14.9422C6.51966 15.9657 8.05491 16.493 9.80491 16.524C11.9299 16.477 13.6957 15.7465 15.1022 14.3325C16.5087 12.9185 17.2432 11.149 17.3057 9.02398H18.8057C18.7432 11.571 17.8642 13.692 16.1687 15.387C14.4732 17.082 12.3522 17.961 9.80566 18.024C7.25866 17.9615 5.13766 17.0825 3.44266 15.387C1.74766 13.6915 0.868664 11.5705 0.805664 9.02398C0.821164 7.21148 1.30566 5.57073 2.25916 4.10173C3.21266 2.63273 4.51741 1.53123 6.17341 0.797226C7.84541 0.0782262 9.54466 -0.136524 11.2712 0.152976C12.9977 0.442476 14.5407 1.18848 15.9002 2.39098H15.8987Z" fill="black"/>
</svg>
