<svg width="50" height="50" viewBox="0 0 50 50" fill="none" xmlns="http://www.w3.org/2000/svg">
<circle cx="25" cy="25" r="25" fill="url(#paint0_linear_373_537)"/>
<path d="M26.7021 23.6C28.6088 23.704 30.0561 24.224 31.0441 25.16C32.0494 26.0787 32.5521 27.2833 32.5521 28.774C32.5521 29.814 32.3008 30.7413 31.7981 31.556C31.2954 32.3533 30.5501 32.986 29.5621 33.454C28.5741 33.922 27.3694 34.156 25.9481 34.156C24.6308 34.156 23.3828 33.948 22.2041 33.532C21.0428 33.0987 20.1068 32.5267 19.3961 31.816L20.3061 30.334C20.9128 30.958 21.7188 31.4693 22.7241 31.868C23.7294 32.2493 24.8041 32.44 25.9481 32.44C27.4388 32.44 28.5914 32.1193 29.4061 31.478C30.2208 30.8193 30.6281 29.918 30.6281 28.774C30.6281 27.6473 30.2208 26.7633 29.4061 26.122C28.5914 25.4807 27.3608 25.16 25.7141 25.16H24.4141V23.782L29.4581 17.464H20.1501V15.8H31.8501V17.126L26.7021 23.6Z" fill="white"/>
<defs>
<linearGradient id="paint0_linear_373_537" x1="25" y1="0" x2="25" y2="50" gradientUnits="userSpaceOnUse">
<stop stop-color="#B926AE"/>
<stop offset="1" stop-color="#7A16E6"/>
</linearGradient>
</defs>
</svg>
