<svg width="50" height="50" viewBox="0 0 50 50" fill="none" xmlns="http://www.w3.org/2000/svg">
<circle cx="25" cy="25" r="25" fill="url(#paint0_linear_373_573)"/>
<path d="M32.8913 32.336V34H20.1253V32.674L27.6913 25.264C28.6447 24.328 29.286 23.522 29.6153 22.846C29.962 22.1527 30.1353 21.4593 30.1353 20.766C30.1353 19.6913 29.7627 18.8593 29.0173 18.27C28.2893 17.6633 27.2407 17.36 25.8713 17.36C23.7393 17.36 22.084 18.036 20.9053 19.388L19.5793 18.244C20.29 17.412 21.1913 16.7707 22.2833 16.32C23.3927 15.8693 24.6407 15.644 26.0273 15.644C27.882 15.644 29.3467 16.086 30.4213 16.97C31.5133 17.8367 32.0593 19.0327 32.0593 20.558C32.0593 21.494 31.8513 22.3953 31.4353 23.262C31.0193 24.1287 30.2307 25.1253 29.0693 26.252L22.8813 32.336H32.8913Z" fill="white"/>
<defs>
<linearGradient id="paint0_linear_373_573" x1="25" y1="0" x2="25" y2="50" gradientUnits="userSpaceOnUse">
<stop stop-color="#B926AE"/>
<stop offset="1" stop-color="#7A16E6"/>
</linearGradient>
</defs>
</svg>
